<?xml version="1.0" encoding="UTF-8"?>
<svg id="Layer_1" data-name="Layer 1" xmlns="http://www.w3.org/2000/svg" viewBox="0 0 192.28 184.39">
  <defs>
    <style>
      .cls-1 {
        fill: #fff0e8;
      }

      .cls-2 {
        fill: #11e3de;
      }

      .cls-3 {
        fill: #00b4c8;
      }

      .cls-4 {
        fill: #b8fce5;
      }

      .cls-5 {
        fill: #21ffe0;
      }

      .cls-6 {
        fill: #07182a;
      }
    </style>
  </defs>
  <g>
    <path class="cls-5" d="M115.52,170.77c-4.16,0-7.65-1.29-10.1-3.74-8.17-8.17-2.34-26.82,13.28-42.44,10.67-10.67,25.46-15.53,34.69-15.53,3.65,0,6.26.76,7.75,2.25,3.04,3.04,2.22,11.47.59,17.76-1.41,5.45-5.09,15.89-13.88,24.68-10.5,10.5-22.9,17.03-32.34,17.03Z"/>
    <path class="cls-6" d="M153.4,112.06c2.74,0,4.75.49,5.63,1.37,2.98,2.98.93,23.98-13.28,38.2-10.2,10.2-21.89,16.15-30.22,16.15-3.28,0-6.03-.92-7.98-2.86-6.88-6.88-.93-23.98,13.28-38.2,10.56-10.56,24.63-14.65,32.57-14.65M153.4,106.06h0c-10.15,0-25.47,5.07-36.81,16.41-17.09,17.09-22.81,37.16-13.28,46.68,3.02,3.02,7.25,4.62,12.22,4.62,10.22,0,23.42-6.86,34.47-17.9,9.29-9.29,13.17-20.31,14.66-26.05,1.19-4.6,3.44-15.82-1.37-20.64-2.1-2.1-5.33-3.13-9.88-3.13h0Z"/>
  </g>
  <path class="cls-2" d="M135.29,145c-10.96,5.14-21.87,7.1-29.74,5.93-1.58,5.9-1.05,10.94,2,13.98,6.88,6.88,23.98.93,38.2-13.28,10.7-10.7,14.51-25.24,14.47-33.05-2.5,7.33-11.06,19.92-24.93,26.43Z"/>
  <path class="cls-4" d="M166.94,0h-31.79c-14,0-25.34,11.35-25.34,25.34v6c0,14,11.35,25.34,25.34,25.34h3.87v17.4l17.69-17.4h10.23c14,0,25.34-11.35,25.34-25.34v-6c0-14-11.35-25.34-25.34-25.34Z"/>
  <g>
    <path class="cls-5" d="M23.62,55.3c-11.37,0-20.62-9.25-20.62-20.62S12.25,14.07,23.62,14.07s20.62,9.25,20.62,20.62-9.25,20.62-20.62,20.62Z"/>
    <path class="cls-6" d="M23.62,17.07c9.73,0,17.62,7.89,17.62,17.62s-7.89,17.62-17.62,17.62-17.62-7.89-17.62-17.62,7.89-17.62,17.62-17.62M23.62,11.07C10.59,11.07,0,21.66,0,34.69s10.59,23.62,23.62,23.62,23.62-10.59,23.62-23.62-10.59-23.62-23.62-23.62h0Z"/>
  </g>
  <g>
    <path class="cls-5" d="M109.88,55.3c-11.37,0-20.62-9.25-20.62-20.62s9.25-20.62,20.62-20.62,20.62,9.25,20.62,20.62-9.25,20.62-20.62,20.62Z"/>
    <path class="cls-6" d="M109.88,17.07c9.73,0,17.62,7.89,17.62,17.62s-7.89,17.62-17.62,17.62-17.62-7.89-17.62-17.62,7.89-17.62,17.62-17.62M109.88,11.07c-13.02,0-23.62,10.59-23.62,23.62s10.59,23.62,23.62,23.62,23.62-10.59,23.62-23.62-10.59-23.62-23.62-23.62h0Z"/>
  </g>
  <g>
    <path class="cls-5" d="M68.05,181.39c-34.48,0-62.53-28.05-62.53-62.53v-38.47c0-34.48,28.05-62.53,62.53-62.53s62.53,28.05,62.53,62.53v38.47c0,34.48-28.05,62.53-62.53,62.53Z"/>
    <path class="cls-6" d="M68.05,20.85c32.88,0,59.53,26.65,59.53,59.53v38.47c0,32.88-26.65,59.53-59.53,59.53h0c-32.88,0-59.53-26.65-59.53-59.53v-38.47c0-32.88,26.65-59.53,59.53-59.53h0M68.05,14.85C31.92,14.85,2.52,44.25,2.52,80.38v38.47c0,36.13,29.4,65.53,65.53,65.53s65.53-29.4,65.53-65.53v-38.47c0-36.13-29.4-65.53-65.53-65.53h0Z"/>
  </g>
  <circle class="cls-1" cx="43.76" cy="64.56" r="18.91"/>
  <circle class="cls-1" cx="93.02" cy="64.56" r="18.91"/>
  <circle class="cls-3" cx="146.61" cy="31.48" r="6.59"/>
  <circle class="cls-3" cx="167.66" cy="31.48" r="6.59"/>
  <ellipse cx="43.76" cy="64.56" rx="6.42" ry="7.42"/>
  <ellipse cx="93.02" cy="64.56" rx="6.42" ry="7.42"/>
  <rect x="56.27" y="83.83" width="23.57" height="9.87" rx="4.93" ry="4.93"/>
  <rect x="56.27" y="83.83" width="23.57" height="9.87" rx="4.93" ry="4.93"/>
  <rect x="63.12" y="84.76" width="9.87" height="23.57" rx="4.93" ry="4.93"/>
  <rect x="37.35" y="57.14" width="12.83" height="15.87" rx="6.42" ry="6.42"/>
  <rect x="86.6" y="57.14" width="12.83" height="15.87" rx="6.42" ry="6.42"/>
  <path class="cls-2" d="M109.81,127.3c-15.17,19.49-34.5,26.24-41.75,28.65-18.7,6.24-34.92,4.94-43.36,3.66,10.86,11.55,26.26,18.77,43.36,18.77h0c32.88,0,59.53-26.65,59.53-59.53v-38.47c0-1.4-.07-2.78-.16-4.16-.08,7.72-1.35,30.17-17.62,51.08Z"/>
</svg>